<?xml version="1.0" encoding="utf-8"?>
<!-- Generator: Adobe Illustrator 24.0.0, SVG Export Plug-In . SVG Version: 6.00 Build 0)  -->
<svg version="1.1" id="Capa_1" xmlns="http://www.w3.org/2000/svg" xmlns:xlink="http://www.w3.org/1999/xlink" x="0px" y="0px"
	 viewBox="0 0 236.7 236.7" style="enable-background:new 0 0 236.7 236.7;" xml:space="preserve">
<style type="text/css">
	.st0{fill:#FFFFFF;}
</style>
<g>
	<path d="M107.3,118c-15.5,0-30.7,0-45.9,0c0,0,0-0.2,0-0.5c1.3-0.2,2.6-0.3,3.9-0.6c4.7-1,7-4.3,6-8.9c-0.8-3.9-2-7.7-3.2-11.5
		c-1.3-3.8-2.9-7.5-4.3-11.3c-0.4-1.1-1-1.5-2.1-1.5c-10.1,0-20.3,0-30.4,0c-1,0-1.7,0.2-2.1,1.3c-1.8,5.9-3.8,11.7-5.3,17.6
		c-0.6,2.2-0.5,4.7-0.2,7c0.5,3.6,2.8,5.9,6.3,6.8c2.2,0.6,4.4,0.8,6.8,1.6c-0.6,0.1-1.2,0.4-1.8,0.4c-5.4,0-10.7,0-16.1,0
		c-5.5,0-11,0-16.5,0c-0.6,0-1.2-0.2-1.8-0.3c0-0.2,0-0.4,0.1-0.6c1.1-0.1,2.3-0.2,3.4-0.3c5.7-0.9,9.7-4.3,12.9-8.8
		c4.4-6.4,7.4-13.5,10.2-20.7C36,65.4,44.7,43.2,53.5,21c0.3-0.8,0.6-1.5,1.1-2.7c0.5,1.1,0.9,1.9,1.2,2.7
		C67.2,47.7,78.6,74.5,90,101.1c1.7,3.9,3.7,7.6,6.1,11.1c2.5,3.8,6.4,5.1,11.2,5c0-0.7,0-1.3,0-1.9c0-23,0.1-46.1-0.1-69.1
		c-0.1-7.4-0.8-14.8-1.9-22c-1.7-11.2-8.6-17.9-19.7-19.9c-5.1-0.9-10.2-1.2-15.4-1.6c-1.3-0.1-2.7,0-4.2,0c0-1,0-1.8,0-2.6
		c52.9,0,105.7,0,158.7,0c1.5,19.9,3,39.7,4.5,59.5c-0.2,0.1-0.5,0.1-0.7,0.2c-0.2-0.5-0.6-1-0.6-1.5c-0.5-4.1-0.9-8.3-1.5-12.4
		c-1.3-9.1-3.2-18-7.5-26.2c-5.4-10.1-14.2-15.4-25.3-17c-6.6-1-13.3-0.9-19.9,0.3C162.7,5,156.8,10.5,155,21.5
		c-1.2,7.3-1.8,14.7-2,22c-0.3,13-0.1,25.9-0.1,38.9c0,0.5,0.1,1,0.1,1.7c3.4,0,6.7,0.2,10,0c5.1-0.4,10.2-0.6,15.2-1.7
		c10.7-2.2,16.8-9.4,19-19.8c1.2-5.7,1.7-11.5,2.6-17.7c0.3,0.6,0.8,1,0.7,1.4c-0.2,6.2-0.4,12.4-0.6,18.6
		c-0.3,9.2-0.7,18.3-1.1,27.5c-0.4,10.5-0.8,20.9-1.2,31.4c0,0.4-0.5,0.8-0.8,1.2c-0.2-0.5-0.6-0.9-0.5-1.4c0.3-6,0-12-1.3-17.9
		c-2.3-10.5-8.8-16.5-19.2-18.8c-7.5-1.6-15.1-1.1-22.9-1.2c0,0.9,0,1.6,0,2.4c0,20.8,0,41.5,0,62.3c0,4.6,0.1,9.3,0.8,13.8
		c0.8,5.2,2.7,7.1,7.9,7.3c10.4,0.4,20.8,0.9,31.1-1.4c14.1-3.2,23.8-12,30.2-24.7c4.7-9.5,7.4-19.6,9.4-29.9
		c0.9-4.7,1.5-9.4,2.4-14.1c0.1-0.6,0.6-1.1,0.9-1.6c0.2,0.6,0.7,1.2,0.7,1.8c0.2,17.2,0.4,34.3,0.5,51.5c0.1,6.7,0,13.5,0,20.5
		c-0.6,0-1.4,0-2.2,0c-27.2,0-54.3,0-81.5,0c-1.4,0-2.1,0.1-2.5,1.9c-1.7,9.6-4.6,18.9-9.5,27.4c-9.1,16.1-23,25.7-40.6,30.3
		c-12.1,3.2-24.5,4.1-36.9,3.2c-12.8-0.9-25-3.8-36.3-9.9c-11.8-6.4-20.8-15.4-24.8-28.5c-3.2-10.6-3.2-21.1,0.9-31.5
		c6.6-16.3,24.8-20.3,36.8-14.2c7.2,3.6,10.9,9.7,11.9,17.6c0.3,2,0.3,4,0.3,6.1c0,0.6-0.5,1.4-1,1.6c-7.2,3.2-10.9,9.2-12.6,16.5
		c-4.2,18.5,6.4,35.4,24.9,39.3c14.3,3,27.7-1.9,35.6-16.2c3.9-7.1,6.2-14.7,6.9-22.7c0.8-8.4,1.1-16.8,1.2-25.3
		c0.2-16,0.1-32.1,0.1-48.1C107.3,120.2,107.3,119.5,107.3,118z M30.4,82.4c10.8,0,21.4,0,32.4,0c-5.4-13.7-10.7-27.2-16.2-41.1
		C41.1,55.3,35.8,68.7,30.4,82.4z"/>
</g>
</svg>
