<?xml version="1.0" encoding="utf-8"?>
<!-- Generator: Adobe Illustrator 24.0.0, SVG Export Plug-In . SVG Version: 6.00 Build 0)  -->
<svg version="1.1" id="Capa_1" xmlns="http://www.w3.org/2000/svg" xmlns:xlink="http://www.w3.org/1999/xlink" x="0px" y="0px"
	 viewBox="0 0 461 282.6" style="enable-background:new 0 0 461 282.6;" xml:space="preserve">
<style type="text/css">
	.st0{fill:#FFFFFF;}
</style>
<g>
	<path class="st0" d="M46.6,117.4c0-0.6,0-1.4,0-2.2c37.5,0,75,0,112.8,0c1.1,14.1,2.2,28.3,3.2,42.4c-1.7,0.4-1.7,0.4-2-1.3
		c-0.8-5.6-1.3-11.2-2.6-16.7c-0.9-3.9-2.4-7.8-4.4-11.3c-4.2-7.5-11.4-10.3-19.6-10.8c-3.5-0.2-7.1-0.1-10.6,0.4
		c-8.3,1.2-12.6,5.8-13.7,14.8c-0.7,6.4-0.9,12.8-1.1,19.2c-0.2,6.8,0,13.6-0.1,20.4c0,1.5,0.3,2.1,2,2c4.2-0.3,8.4-0.1,12.5-0.7
		c10-1.4,14.8-6.3,16.5-16.4c0.5-3,0.7-6,0.9-9c0.1-1.2,0.5-1.7,1.8-1.3c0,1.3,0,2.5,0,3.8c-0.7,17.1-1.3,34.2-2,51.3
		c0,1,0.2,2.3-1.8,1.7c0-0.6,0-1.3,0-2c-0.2-3.3-0.1-6.6-0.5-9.8c-1.4-9.2-6-13.8-15.4-15.2c-4.4-0.6-9-0.6-13.9-0.8
		c0,1.1,0,1.8,0,2.6c0,15.4-0.1,30.8-0.1,46.2c0,2.3,0.4,4.7,0.8,7c0.4,2.1,1.7,3.7,3.9,3.8c8.2,0.4,16.5,0.9,24.6-1.3
		c10.2-2.8,16.5-10,20.5-19.4c3.7-8.5,5.4-17.5,6.7-26.6c0.1-0.6,0.1-1.4,0.3-1.9c0.3-0.5,0.8-0.9,1.5-1.6c0.6,5.2,1,9.8,1.7,14.3
		c1,6.4,3,12.6,6.2,18.3c5.2,9.2,12.9,15.2,23.2,17.7c10.2,2.4,20.3,2,30.1-1.8c6.9-2.7,12.1-7.1,13.7-14.7c1.4-6.7-0.1-12.7-5-17.8
		c-3.8-4-8.6-6.7-13.6-8.8c-8.4-3.3-17-6.2-25.3-9.6c-6-2.4-12.1-5.1-17.7-8.3c-7.1-4-12.4-9.8-14.4-18.1
		c-3-13.1,2.4-25.8,14.2-33.3c7.7-4.9,16.3-7.1,25.3-7.8c11.5-0.9,22.7,0.6,33.6,4.6c0.7,0.2,1.7,0.1,2.4-0.2
		c3.1-1.3,6.2-2.8,9.6-4.3c0.7,14.5,1.4,28.6,2.1,42.8c-1.5,0.6-1.9,0.1-2.2-1.4c-1-5.6-1.5-11.3-3.2-16.7
		c-4.4-13.9-14.5-20.9-28.7-22.5c-6.7-0.8-13.3-0.6-19.8,1.5c-3.8,1.2-7.2,3.1-10.1,5.9c-7.5,7.5-7.1,19,0.9,25.9
		c5.1,4.4,11.3,6.9,17.5,9.1c9.2,3.3,18.4,6.4,27.5,9.9c4,1.6,7.8,3.7,11.4,6c19.7,12.6,17.4,38.6,2.3,50.7
		c-8.4,6.8-18.1,10.2-28.6,11.5c-13.7,1.7-27.2,0-40.3-4.2c-0.8-0.2-1.9-0.2-2.6,0.2c-6.2,3.6-12.9,4.3-19.9,4.2
		c-16-0.3-32-0.1-48-0.1c-1.6,0-2.2,0.4-2.5,2c-1.5,8.1-4.3,15.6-9.1,22.4c-7.1,10-17.1,15.6-28.9,18.1c-14.9,3.1-29.7,2.8-44-2.8
		c-6.7-2.6-12.7-6.3-17.2-12c-7.8-9.8-9.5-20.8-5.4-32.6c3.3-9.5,12.7-14.5,22.5-12.5c9.2,1.9,13.7,9.7,13.1,18.7
		c0,0.5-0.4,1.2-0.9,1.3c-6.1,2.7-8.6,7.8-9.1,13.9c-1.8,19.5,16.5,29.2,31.1,23.6c5.7-2.2,9.4-6.5,12-11.8
		c3.3-6.8,4.6-14.1,4.7-21.5c0.1-33.9,0.1-67.9,0-101.8c0-3.3-0.4-6.5-1-9.8c-1.7-9.1-6.1-13.4-15.2-14.7
		C55.2,118,51,117.8,46.6,117.4z"/>
	<path class="st0" d="M367.6,238.2c-0.7-17-1.4-33.7-2-50.5c0.7-0.1,1.3-0.1,2.1-0.2c0.1,0.8,0.2,1.5,0.3,2.2
		c0.8,5.2,1.3,10.4,2.6,15.5c2,8.3,5.9,15.8,12.4,21.7c8.1,7.3,18,9.6,28.5,9.5c7.3-0.1,14.5-1.3,21-5c8.7-4.9,12.4-13.9,9.6-23
		c-1.2-4-3.6-7.1-6.8-9.7c-5.2-4.3-11.4-7-17.6-9.3c-8.9-3.4-17.9-6.4-26.6-10c-4.6-1.9-9.1-4.4-13.2-7.3
		c-17.2-11.8-14.5-34.2-2.9-44.9c6.9-6.4,15.1-9.7,24.2-11.3c13.7-2.5,27.1-1,40.2,3.6c0.8,0.3,1.8,0.2,2.6-0.1
		c3.1-1.3,6.2-2.8,9.5-4.3c0.7,14.4,1.4,28.6,2.1,42.9c-0.8,0-1.3,0-1.6,0c-1-5.2-1.6-10.4-2.9-15.4c-4.2-15.9-15.4-24.8-32-25.6
		c-6.5-0.3-13-0.1-19.1,2.3c-6.7,2.7-11.8,6.9-13.3,14.3c-1.4,6.6,0.4,12.3,5.6,16.8c4.4,3.9,9.6,6.3,15.1,8.3
		c9.2,3.4,18.6,6.3,27.7,9.9c5.2,2.1,10.3,4.7,14.9,7.8c17.9,12.1,15.8,35.3,4.3,47c-7.1,7.3-15.8,11.3-25.6,13.3
		c-15.5,3.3-30.7,1.6-45.7-3c-1.3-0.4-2.4-0.5-3.7,0.2C374.1,235.5,371,236.7,367.6,238.2z"/>
	<path class="st0" d="M252.1,117.4c0-0.4-0.1-0.8-0.1-1.1c0-0.2,0.1-0.5,0.2-0.8c19,0,37.9,0,57,0c0,0.6,0,1.2,0,1.8
		c-2.1,0.3-4.2,0.4-6.3,0.8c-4.6,0.8-7.4,3.6-8.2,8.1c-0.6,3.5-1.1,7.1-1.1,10.7c-0.1,19.3-0.1,38.5,0,57.8
		c0.1,7.8,0.7,15.6,3.1,23.1c2.7,8.3,7.4,14.7,16.4,16.9c19,4.8,36.1-5.3,40.9-24.5c1.4-5.4,2.2-11,2.3-16.5
		c0.2-17.1,0-34.2-0.3-51.3c0-3.2-0.7-6.5-1.4-9.7c-2.3-9.3-8.1-14-17.6-14.9c-1.8-0.2-3.6-0.3-5.6-0.5c0-0.6-0.1-1.1-0.1-1.9
		c16.9,0,33.7,0,50.7,0c0,0.6,0,1.2,0,1.8c-2.1,0.2-4.2,0.3-6.3,0.6c-9.1,1.6-14.1,6.4-15.5,16c-1,7-1.3,14.2-1.4,21.3
		c-0.3,13.8,0.1,27.6-0.4,41.5c-0.2,5.6-1.3,11.2-2.9,16.6c-4.2,14-13.9,22-28.2,24.3c-10.3,1.7-20.7,1.1-30.8-1.6
		c-13.8-3.7-21.9-12.9-25.3-26.6c-1.6-6.6-2.1-13.3-2.1-20.1c0-16.7,0-33.4-0.1-50.1c0-4-0.3-8.1-1-12.1c-1-5.9-4.3-8.7-10.2-9.4
		C255.9,117.6,254.1,117.5,252.1,117.4z"/>
	<path class="st0" d="M317.1,115.6c1.2-2.2,2.2-4.2,3.4-6.3c-1.5-0.4-2.9-0.7-4.3-1.1c-11.3-3.6-17.6-11.5-19.6-23
		c-0.9-5.5-0.7-11.1,0.9-16.5c3.7-13,15.4-21.1,29-20.2c16.3,1.1,27,12.2,27.5,28.5c0.2,5.6-0.4,11-2.7,16.1
		c-4.2,9.4-11.7,14.5-21.7,16c-1.6,0.2-2.7,0.7-3.5,2.1c-0.2,0.4-0.5,0.7-0.8,1.1C322.4,116,322.4,116,317.1,115.6z M329.3,106.9
		c0.2,0.2,0.3,0.4,0.5,0.7c1.6-1.3,3.7-2.3,4.8-3.9c1.7-2.5,3.2-5.3,4-8.2c2.4-9.3,2.2-18.8,1-28.3c-0.5-4-1.6-8-3.8-11.4
		c-5.1-8-16.5-7.9-21.4,0.2c-1.3,2.1-2.2,4.6-2.8,7c-1.9,7.6-1.9,15.4-1.4,23.2c0.3,4.9,1.1,9.8,3.3,14.2c1.4,2.8,3.3,5,6.1,6.4
		c1.3,0.6,2.1,0.7,2.7-0.9c0.6-1.4,1.4-2.7,2.1-4c0.2-0.4,0.7-0.9,1.1-0.9c2.6-0.1,5.1,0,8.1,0C332,103.3,330.6,105.1,329.3,106.9z"
		/>
	<path class="st0" d="M96.5,108.7c-17.1,0-34,0-50.9,0c-0.1-0.1-0.2-0.3-0.3-0.4c0.4-0.3,0.7-0.8,1.2-0.9c0.6-0.2,1.3-0.1,2-0.1
		c2.9-0.4,4.4-1.6,4.8-4.6c0.4-2.8,0.4-5.7,0.5-8.6c0-11.1,0-22.3,0-33.4c0-1.6-0.1-3.3-0.3-4.9c-0.6-3.5-2.1-4.8-5.6-5.1
		c-0.4,0-0.8,0.1-1.2-0.1c-0.4-0.2-0.7-0.5-1-0.8c0.4-0.2,0.8-0.5,1.1-0.7c0.1-0.1,0.3,0,0.4,0c15.8,0,31.6,0,47.4,0
		c0.3,0,0.5,0,1.1,0.1c0.6,7,1.3,13.9,1.9,20.9c-0.3,0.1-0.5,0.2-0.8,0.2c-0.3-0.6-0.6-1.1-0.7-1.7c-0.4-2.2-0.7-4.5-1.2-6.7
		c-1.9-7.2-5.6-10.6-13.1-11.1c-5-0.4-10.1-0.1-15.2-0.1c0,8.9,0,17.8,0,26.9c4.5,0.1,9.1,0.4,13.4-1.8c3.6-1.9,4.1-5.5,4.7-9
		c0.1-0.8-0.8-2.1,0.9-2.2c0.1,0,0.4,1.5,0.4,2.3c-0.3,7.9-0.7,15.7-1.1,23.6c0,0.7-0.4,1.3-0.7,2c-0.3-0.1-0.5-0.1-0.8-0.2
		c0-1.2,0.1-2.5,0-3.7c-0.3-5.4-2.5-8.1-7.8-9c-2.9-0.5-5.9-0.5-9-0.7c-0.1,0.9-0.1,1.4-0.1,1.9c0,6.9,0,13.9,0.1,20.8
		c0,1.2,0,2.6,0.5,3.7c0.4,0.8,1.5,1.9,2.3,1.9c4.4,0,8.9,0.2,13.3-0.5c6.2-0.9,10.6-4.7,12.9-10.6c1.4-3.6,2.2-7.5,3.3-11.3
		c0.2-0.7,0.5-1.4,0.8-2.1c0.3,0.1,0.6,0.2,0.8,0.3C98.9,91.6,97.7,100.1,96.5,108.7z"/>
	<path class="st0" d="M146.3,48.5c0.4,7,0.7,13.7,1,20.4c0,0.4-0.4,0.8-0.6,1.2c-0.3-0.4-0.7-0.7-0.8-1.1c-0.3-1.5-0.4-3.1-0.7-4.7
		c-1.9-9.3-7-13.8-16.4-14.4c-3.4-0.2-6.8,0.2-9.9,1.7c-6.9,3.4-7.5,11.5-0.9,15.5c3.4,2,7.3,3.2,10.9,4.7c4.8,2,9.8,3.7,14.4,6.1
		c5.4,2.9,8,7.8,7.7,14c-0.3,5.2-2.7,9.3-6.8,12.3c-6.2,4.4-13.3,5.7-20.7,5.1c-3.9-0.3-7.8-1.4-11.8-2.1c-0.7-0.1-1.4-0.1-2,0.2
		c-1.4,0.5-2.7,1.2-4.4,2c-0.4-8.6-0.9-16.8-1.3-25.1c1.4-0.1,1.3-0.1,1.5,1.1c0.5,2.8,0.8,5.6,1.5,8.3
		c3.3,11.2,11.8,15.2,22.1,14.1c2.3-0.2,4.7-0.9,6.8-1.8c7.2-3.3,8.1-11.8,1.6-16.5c-2.5-1.8-5.5-3.1-8.4-4.3
		c-3.9-1.6-8-2.8-11.9-4.5c-2.5-1.1-5-2.3-7.2-3.9c-7.7-5.6-8.1-16.2-1.1-22.6c3.9-3.5,8.7-5,13.8-5.6c5.8-0.7,11.5,0.1,17,1.9
		c0.7,0.2,1.5,0.1,2.2-0.1C143.4,49.9,144.7,49.2,146.3,48.5z"/>
	<path class="st0" d="M206.1,70.3c-0.2-0.6-0.6-1.1-0.7-1.7c-0.5-2.6-0.9-5.2-1.5-7.7c-1.6-5.9-5.4-9.4-11.6-10.1
		c-2.3-0.3-4.7-0.2-7.3-0.4c0,0.9,0,1.5,0,2.1c0,14.5,0,29.1,0,43.6c0,1.6,0.1,3.3,0.3,4.9c0.4,3.9,2,5.6,5.9,6
		c0.8,0.1,1.7,0,2.5,0.2c0.4,0.1,0.8,0.6,1.1,0.9c-0.1,0.1-0.2,0.3-0.3,0.4c-10.5,0-21,0-32,0c0.5-0.6,0.7-1,1-1.4
		c0.1-0.1,0.4,0,0.6,0c7.1-0.1,8.2-2.9,8.3-8.5c0.1-15.1,0.1-30.1,0.2-45.2c0-0.9,0-1.8,0-2.7c-9.3-2.2-16.8,2.2-19.2,11.1
		c-0.6,2.1-0.8,4.4-1.2,6.5c-0.1,0.6-0.5,1.2-0.7,1.8c-0.3-0.1-0.6-0.2-0.9-0.2c0.6-7,1.3-13.9,1.9-20.9c17.5,0,34.9,0,52.5,0
		c0.7,7,1.3,13.9,2,20.8C206.7,70.1,206.4,70.2,206.1,70.3z"/>
	<path class="st0" d="M293.1,83c-1.2,8.5-2.4,17-3.7,25.6c-17,0-33.9,0-51.6,0c0.8-0.7,1.1-1.2,1.5-1.3c0.6-0.2,1.3-0.1,1.9-0.1
		c3-0.4,4.4-1.7,4.9-4.7c0.2-1.3,0.4-2.7,0.4-4.1c0-13,0-25.9,0-38.9c0-1.1-0.1-2.2-0.2-3.3c-0.7-4.1-2.1-5.3-6.2-5.6
		c-0.8,0-2.1,0.4-1.6-1.4c10.2,0,20.5,0,30.7,0c0.1,0.2,0.2,0.4,0.3,0.5c-0.4,0.3-0.9,0.7-1.3,0.8c-1.3,0.2-2.7,0.2-4.1,0.5
		c-2.6,0.4-4.3,2.1-4.6,4.7c-0.3,3-0.5,6-0.5,9c0,12.1,0,24.2,0,36.3c0,0.6,0,1.2,0,1.8c0.2,3.8,0.9,4.6,4.7,4.5
		c4-0.1,8.1-0.2,12.1-0.8c5.3-0.9,9.3-4.1,11.4-9c1.8-4.1,2.7-8.6,4-12.8c0.2-0.7,0.5-1.3,0.8-1.9C292.6,82.8,292.9,82.9,293.1,83z"
		/>
	<path class="st0" d="M237.6,49.2c-0.6,0.7-0.9,1.1-1.3,1.3c-0.4,0.2-0.9,0-1.4,0.1c-3.7,0.3-5.3,1.7-5.6,5.3
		c-0.3,3.2-0.4,6.4-0.4,9.6c0,10.4,0,20.8,0,31.2c0,1.6,0.1,3.3,0.3,4.9c0.5,4.1,2,5.4,6.2,5.6c0.8,0,2.1-0.4,1.6,1.4
		c-9.5,0-19,0-28.6,0c-0.1-0.2-0.2-0.3-0.3-0.5c0.4-0.3,0.8-0.7,1.3-0.8c0.9-0.2,1.8-0.2,2.7-0.3c2.1-0.4,3.3-1.7,3.8-3.8
		c0.2-1.1,0.4-2.2,0.4-3.3c0-14,0-27.9,0-41.9c0-0.8-0.1-1.7-0.3-2.5c-0.7-3.3-2.1-4.6-5.4-4.9c-0.6-0.1-1.2,0-1.8-0.1
		c-0.3-0.1-0.5-0.5-0.6-0.8c0-0.2,0.3-0.5,0.6-0.6c0.3-0.1,0.6,0,1,0c8.6,0,17.3,0,25.9,0C236.2,49.1,236.6,49.1,237.6,49.2z"/>
	<path class="st0" d="M45.4,44.3c0.5-0.2,1-0.6,1.5-0.6c2.5-0.2,4.4-1.5,5.6-3.5c1.6-2.7,3.1-5.5,4.3-8.4c4-9.8,7.9-19.7,11.8-29.5
		C68.8,1.7,69,1,69.5,0c2.1,5,4.1,9.7,6.1,14.3c3.3,7.8,6.7,15.6,10,23.4c1.3,3,2.7,6,6.6,6.1c0.2,0,0.5,0.5,0.9,1.1
		c-7.3,0-14.1,0-21,0c-0.1-0.2-0.2-0.3-0.3-0.5c0.4-0.3,0.8-0.7,1.3-0.8c2.8-0.6,3.6-1.6,2.9-4.4c-0.8-2.8-1.8-5.6-2.9-8.3
		c-0.2-0.4-0.9-0.9-1.4-0.9c-4-0.1-8-0.1-12,0c-0.4,0-1.1,0.4-1.2,0.7c-0.8,2.9-1.9,5.7-2.3,8.7c-0.4,2.6,1,3.8,3.6,4.2
		c0.8,0.1,1.5,0.4,2.3,0.5c0,0.2-0.1,0.5-0.1,0.7c-5.5,0-11,0-16.5,0C45.5,44.7,45.4,44.5,45.4,44.3z M59.5,28.5c4.3,0,8.4,0,12.8,0
		c-2.1-5.4-4.2-10.6-6.3-16.1c-0.4,0.8-0.7,1.4-0.9,2C63.2,19,61.4,23.7,59.5,28.5z"/>
	<path class="st0" d="M115.8,3.4c-0.5,0.1-1,0.4-1.5,0.4c-4.4,0.3-5.6,1.4-5.7,5.8c-0.1,10.3-0.1,20.7,0,31c0,2.8,0.6,3.2,3.3,3.2
		c2,0,3.9,0,5.9-0.2c5.6-0.4,9.5-3.2,11.4-8.5c0.8-2.3,1.3-4.8,2-7.2c0.1-0.5,0.5-1,0.8-1.4c0.2,0.1,0.4,0.2,0.6,0.3
		c-0.9,6-1.7,12.1-2.6,18.2c-12.2,0-24.1,0-36.1,0c-0.1-0.2-0.1-0.3-0.2-0.5c0.4-0.2,0.8-0.6,1.3-0.7c3.6-0.6,4.4-1.2,4.4-4.8
		c0.1-10.1,0.1-20.2,0-30.3c0-3.6-0.9-4.3-4.5-4.9c-0.4-0.1-0.8-0.4-1.2-0.6c0.1-0.1,0.1-0.3,0.2-0.4c7.3,0,14.6,0,21.9,0
		C115.7,3,115.7,3.2,115.8,3.4z"/>
	<path class="st0" d="M358.2,82.1c0.4-0.1,0.9-0.3,1.3-0.3c4.8,0.1,9.7-0.1,14.5,0.3c6.5,0.5,10.2,4.4,10.7,10.9
		c0.1,1.6,0.1,3.3,0,4.9c-0.6,5.4-4.1,9.7-9.5,10.3c-5.5,0.7-11.2,0.5-16.8,0.7c-0.1-0.2-0.1-0.4-0.2-0.6c0.3-0.2,0.5-0.7,0.8-0.7
		c2.3,0,2.7-1.5,2.8-3.2c0.1-2.7,0.1-5.4,0.1-8.1c0-2.6,0-5.2,0-7.9c0-2.7,0.6-5.8-3.9-5.9C358,82.5,358.1,82.3,358.2,82.1z
		 M367.8,82.9c-0.1,0.4-0.1,0.7-0.1,1c0,7.1,0,14.1,0.1,21.2c0,0.9,0.6,2.3,1.2,2.5c3.6,1.1,7.2-0.7,8.3-4.3
		c1.6-5.3,1.5-10.6,0-15.9c-0.8-2.7-2.8-4.2-5.6-4.4C370.5,82.8,369.2,82.9,367.8,82.9z"/>
	<path class="st0" d="M384.6,82c0.5-0.1,1.1-0.2,1.6-0.2c6.4,0,12.8,0,19.3,0c1.3,0,1.9,0.4,1.9,1.7c0.1,2.2,0.4,4.4,0.5,6.7
		c0,0.4-0.1,0.9-0.4,1.4c-1.2-2.8-0.7-6.7-4.2-7.8c-2.8-0.9-5.9-0.8-9.1-1.2c0,4.2,0,8,0,11.8c4.4,0.6,7.6-0.4,8.1-5.5
		c0,4.2,0,8.4,0,12.5c-0.2,0-0.4,0-0.6,0.1c-0.6-1.6-0.9-3.7-2-4.7c-1.3-1.1-3.5-1-5.6-1.5c0,4.1-0.1,7.6,0.1,11.2
		c0,0.5,1,1.2,1.5,1.3c1.4,0.2,2.9,0.1,4.3,0c4.1-0.4,6.2-3,7.3-6.7c0.4-1.3,0.7-2.7,1-4c0.3,0.1,0.5,0.1,0.8,0.2
		c-0.5,3.8-1,7.7-1.6,11.6c-7.7,0-15.3,0-23.5,0c0.7-0.5,1-0.9,1.3-0.9c2.2,0,2.8-1.4,2.8-3.2c0-3.3,0-6.5,0-9.8c0-2.1,0-4.2,0-6.3
		c0-2.6,0.6-5.7-4-5.6C384.3,82.5,384.5,82.2,384.6,82z"/>
</g>
</svg>
